# xmcd
#
# Track frame offsets:
#	150
#	26281
#	44532
#	67704
#	90554
#	119246
#	142051
#	161095
#	181452
#	205114
#	226255
#	251188
#	293642
#	323670
#
# Disc length: 4735 seconds
#
# Revision: 0
# Processed by: cddbd v1.5.2PL0 Copyright (c) Steve Scherf et al.
# Submitted via: EZCDAudioConverter 7.0.7.1
#
DISCID=c7127d0e
DTITLE=Aretha Franklin - Aretha [Expanded Edition] [CD1]
DYEAR=1987
DGENRE=R&B
TTITLE0=Aretha Franklin - Jimmy Lee
TTITLE1=Aretha Franklin and George Michael - I Knew You Were Waiting For Me (For
TTITLE1=Me)
TTITLE2=Aretha Franklin - Do You Still Remember
TTITLE3=Aretha Franklin - Jumpin' Jack Flash
TTITLE4=Aretha Franklin - Rock-A-Lott
TTITLE5=Aretha Franklin - An Angel Cries
TTITLE6=Aretha Franklin - He'll Come Along
TTITLE7=Aretha Franklin and Larry Graham - If You Need My Love Tonight
TTITLE8=Aretha Franklin - Look To The Rainbow
TTITLE9=Aretha Franklin - Rock-A-Lott (Single Mix)
TTITLE10=Aretha Franklin - Rock-A-Lott (Radio Edit)
TTITLE11=Aretha Franklin - Rock-A-Lott (Street Mix)
TTITLE12=Aretha Franklin - Rock-A-Lott (Dub)
TTITLE13=Aretha Franklin - Rock-A-Lott (Acapella)
EXTD=
EXTT0=
EXTT1=
EXTT2=
EXTT3=
EXTT4=
EXTT5=
EXTT6=
EXTT7=
EXTT8=
EXTT9=
EXTT10=
EXTT11=
EXTT12=
EXTT13=
PLAYORDER=
